<?xml version="1.0" encoding="UTF-8"?>
<svg id="Layer_2" data-name="Layer 2" xmlns="http://www.w3.org/2000/svg" viewBox="0 0 2154.91 2484.78">
  <defs>
    <style>
      .cls-1 {
        fill: #bf0a0a;
        fill-rule: evenodd;
        stroke: #000;
        stroke-miterlimit: 10;
        stroke-width: 10px;
      }
    </style>
  </defs>
  <g id="Stacked_Simplified" data-name="Stacked Simplified">
    <g>
      <path class="cls-1" d="M1494.65,2183.21c6.44-1.73,6.95-2.32,23.19-26.9,18.88-28.57,41.1-62.3,57.25-86.89,6.98-10.62,18.78-28.54,26.24-39.82,7.45-11.28,15.15-22.99,17.1-26.02,1.95-3.03,8.51-13.01,14.58-22.18,10.17-15.36,18.14-27.44,55.27-83.86,7.34-11.15,18.43-27.97,24.63-37.38,6.2-9.4,13.94-21.19,17.2-26.2,3.26-5.01,9.95-15.18,14.87-22.62,10.58-15.98,34.08-51.64,54.33-82.46,7.97-12.14,19.81-30.13,26.32-39.99,6.5-9.86,13.85-21.03,16.34-24.82,2.48-3.79,5.17-7.76,5.97-8.83.86-1.14,1.86-3.67,2.45-6.2.96-4.12.96-4.43,0-8.55-1.76-7.5-5.65-11.38-13.21-13.15l-4.36-1.02-10.26,2.68c-5.64,1.47-19.82,5.11-31.5,8.07-19.78,5.02-25.39,6.51-34.85,9.28l-3.68,1.08.72-2.3c2.43-7.72,3.75-11.81,4.15-12.78.25-.61,1.38-4.08,2.51-7.72,1.14-3.64,3.12-9.85,4.4-13.79,1.28-3.94,3.38-10.52,4.67-14.62,1.28-4.1,2.66-8.32,3.05-9.38.39-1.06,1.64-4.91,2.77-8.55,1.13-3.64,3.12-9.85,4.43-13.79,1.3-3.94,3.9-12.01,5.78-17.93,4.92-15.52,6.47-20.36,9.1-28.41,1.29-3.94,3.76-11.64,5.49-17.1,1.73-5.46,3.87-12.07,4.75-14.68.88-2.61,1.6-5.06,1.6-5.43s.35-1.46.77-2.42c.42-.96,1.82-5.09,3.09-9.18,1.28-4.1,2.52-7.94,2.77-8.55.25-.61,1.49-4.45,2.76-8.55,4.22-13.62,5.61-17.92,6.12-19.03.49-1.06.92-2.43,4.06-12.96.77-2.58,1.63-5.18,1.92-5.79.29-.61.94-2.72,1.46-4.69.52-1.97,1.11-3.83,1.32-4.14.21-.3.7-1.79,1.09-3.31.39-1.52,1.02-3.5,1.39-4.41.65-1.58,4.13-12.38,7.19-22.34.79-2.58,1.65-5.18,1.9-5.79s1.5-4.45,2.76-8.55c1.27-4.1,3.37-10.67,4.67-14.62,4.71-14.27,7.93-24.32,8.57-26.75.36-1.37.98-3.23,1.39-4.14s1.14-3.14,1.63-4.96c.49-1.82,1.11-3.81,1.38-4.41s1.51-4.45,2.77-8.55c1.26-4.1,2.62-8.32,3.03-9.38.41-1.06,1.66-4.91,2.79-8.55,1.12-3.64,3.1-9.85,4.4-13.79,1.29-3.94,3.28-10.15,4.42-13.79,1.13-3.64,3.13-9.85,4.42-13.79,1.3-3.94,4.03-12.38,6.07-18.75,2.04-6.37,4.16-12.95,4.71-14.62.55-1.67,2.41-7.5,4.14-12.96,1.73-5.46,4.21-13.16,5.51-17.1,1.3-3.94,3.4-10.52,4.66-14.62,1.27-4.1,2.51-7.94,2.76-8.55s1.51-4.45,2.8-8.55c1.29-4.1,3.27-10.3,4.39-13.79,1.13-3.49,3.09-9.69,4.36-13.79,1.27-4.1,2.53-7.94,2.79-8.55.26-.61,1.62-4.83,3.03-9.38,1.41-4.55,2.77-8.77,3.03-9.38.26-.61,1.39-4.08,2.52-7.72,1.13-3.64,3.38-10.68,5.01-15.65,1.63-4.97,2.96-9.27,2.96-9.57s.34-1.32.76-2.28c.42-.96,1.81-5.09,3.09-9.18,1.28-4.1,2.93-9.23,3.65-11.4.73-2.17,1.32-4.25,1.32-4.61s.34-1.43.76-2.39c.42-.96,1.8-5.09,3.08-9.18,1.28-4.1,2.53-7.94,2.78-8.55.25-.61,1.5-4.45,2.77-8.55,3.27-10.54,5.44-17.2,6.05-18.48.29-.61.79-2.22,1.13-3.59.66-2.69,4.2-13.93,4.95-15.72.25-.61,1.38-4.08,2.51-7.72,1.13-3.64,3.1-9.85,4.38-13.79,1.29-3.94,3.88-12.01,5.77-17.93,1.89-5.92,4.15-12.94,5.04-15.61.88-2.67,1.61-5.15,1.61-5.52,0-.36.32-1.28.72-2.04.39-.76,1.18-3.11,1.74-5.22.57-2.11,1.36-4.47,1.76-5.24.4-.77.73-1.69.74-2.04,0-.61,4.07-13.65,4.96-15.91.85-2.16,4.42-13.58,4.42-14.15,0-.32.34-1.36.77-2.32.74-1.68,1.34-3.51,6.39-19.66,1.28-4.1,2.53-7.94,2.78-8.55.25-.61,1.48-4.45,2.75-8.55,1.27-4.1,3.37-10.67,4.68-14.62,1.31-3.94,3.91-12.01,5.79-17.93,5.21-16.4,6.51-20.43,9.94-30.89,1.74-5.31,4.21-13,5.49-17.1,1.28-4.1,3.39-10.67,4.7-14.62,1.31-3.94,3.41-10.52,4.68-14.62,1.27-4.1,2.52-7.94,2.78-8.55.26-.61.89-2.59,1.39-4.41.5-1.82,1.11-3.56,1.35-3.86s.61-1.42.83-2.48c.21-1.06,1.71-5.9,3.32-10.76,1.61-4.85,3.85-11.8,4.98-15.44,3.22-10.35,4.68-14.8,5.24-16,.28-.61,1.05-3.08,1.7-5.49.65-2.41,1.37-4.77,1.61-5.24.24-.47,1.48-4.21,2.76-8.3,4.39-14.08,5.61-17.93,6.07-19.03.25-.61,1.49-4.45,2.74-8.55,1.26-4.1,2.62-8.32,3.02-9.38,1.25-3.32,4.71-14.36,4.71-15.06,0-.36.32-1.28.72-2.04.39-.76,1.18-3.11,1.74-5.22.57-2.11,1.36-4.47,1.76-5.24.4-.77.73-1.71.74-2.09,0-.67,4.07-13.68,4.96-15.86.25-.61,1.19-3.46,2.09-6.34,5.1-16.32,6.38-20.3,7.08-21.87.42-.96.77-2.02.77-2.36s1.21-4.27,2.69-8.74c2.6-7.85,3.61-11.02,8.06-25.22,1.14-3.64,2.42-7.4,2.83-8.36.42-.96.76-2,.76-2.33s1.21-4.26,2.68-8.74c1.48-4.48,3.74-11.5,5.04-15.6,3.94-12.46,4.99-15.67,5.51-16.82.28-.61,1.02-3.03,1.66-5.38.64-2.35,1.49-5.08,1.88-6.07,1.57-3.9,2.15-9.95,1.49-15.55-.61-5.18-.7-5.42-3.24-8.51-2.77-3.37-7.88-7.4-11.08-8.74-1.06-.44-4.93-1.29-8.59-1.88-3.66-.59-8.39-1.35-10.5-1.69-4.54-.73-7.58-.24-16.01,2.58-6.17,2.07-28.35,9.2-47.16,15.17-6.83,2.17-17,5.4-22.62,7.18-5.61,1.78-17.03,5.38-25.37,7.99-19.34,6.05-28.53,9.04-30.61,9.94-.91.4-3.89,1.37-6.62,2.17s-8.56,2.66-12.96,4.14c-4.4,1.48-13.46,4.42-20.13,6.55-28.33,9.01-49.71,15.75-61.5,19.4-14.34,4.44-35.63,11.36-37.23,12.11-.61.28-4.33,1.54-8.27,2.78-3.94,1.25-10.89,3.48-15.44,4.95-4.55,1.47-15.1,4.84-23.44,7.47-8.34,2.64-19.39,6.15-24.55,7.8-5.16,1.66-10.12,3.22-11.03,3.48-.91.26-6.74,2.08-12.96,4.05-6.22,1.96-15.03,4.74-19.58,6.17-4.55,1.43-8.52,2.78-8.83,3.01-.3.23-3.53,1.35-7.17,2.49-3.64,1.14-11.46,3.64-17.38,5.56-5.92,1.92-15.84,5.1-22.06,7.07-6.22,1.97-16.52,5.24-22.89,7.27-6.37,2.03-14.19,4.48-17.38,5.46-19.23,5.9-53.37,16.96-55.43,17.97-.61.3-4.45,1.54-8.55,2.76-4.1,1.22-12.29,3.8-18.2,5.73-5.92,1.93-17.95,5.78-26.75,8.57-8.8,2.78-17.11,5.43-18.48,5.88-1.37.45-5.34,1.68-8.83,2.74-3.49,1.06-9.69,3-13.79,4.31-4.1,1.31-10.43,3.31-14.07,4.43-9.92,3.07-14.65,4.67-17.1,5.79-1.21.55-4.18,1.55-6.58,2.23-2.41.67-8.74,2.67-14.07,4.43-5.33,1.76-11.92,3.87-14.65,4.68-8.29,2.46-13.24,6.81-14.96,13.14-.43,1.57-1.38,7.58-2.12,13.34-2.36,18.43-4.08,31.22-4.39,32.73-.17.81-.94,6.31-1.72,12.23-1.93,14.78-3.8,28.71-5.48,40.82-1.97,14.21-3.92,28.51-5.85,42.75-2.53,18.68-4.21,31.06-5.69,41.92-.74,5.46-1.99,14.77-2.76,20.68-.78,5.92-1.54,11.38-1.71,12.14-.16.76-.93,6.22-1.71,12.14-.78,5.92-2.01,15.1-2.73,20.41-.72,5.31-1.93,14.24-2.69,19.86-5.45,40.27-7.22,53.28-8.81,64.81-.75,5.46-1.99,14.52-2.76,20.13-.76,5.61-2.15,15.79-3.08,22.62-.93,6.83-2.18,16.26-2.77,20.96-.59,4.7-1.36,9.96-1.71,11.69-.53,2.64-.48,3.78.34,7.17,1.77,7.36,6.18,11.69,13.67,13.44,4.26,1,4.34,1,9.23-.19,2.71-.66,7.21-2.1,10.01-3.19s30.29-10.39,61.1-20.67c30.81-10.28,60.36-20.19,65.67-22.03,5.31-1.84,26.78-9.06,47.71-16.04,20.93-6.98,45.26-15.1,54.06-18.04,8.8-2.94,17.86-5.94,20.13-6.66s4.76-1.63,5.52-2.03c1.47-.76,77.43-26.2,78.24-26.2.48,0-.1,4.17-1.72,12.41-.48,2.43-1.49,7.76-2.26,11.86-.77,4.1-2.14,11.42-3.05,16.27-.91,4.85-2.3,12.3-3.09,16.55-.79,4.25-2.03,10.83-2.76,14.62-.73,3.79-2.09,10.99-3.02,16-3.86,20.69-6.75,35.93-8.01,42.2-.49,2.43-1.37,7.36-1.97,10.97-.6,3.61-1.19,6.73-1.32,6.94-.13.21-.88,4.19-1.67,8.85-.79,4.66-1.52,8.61-1.64,8.79-.11.18-.87,4.05-1.69,8.59-.82,4.54-2.07,11.37-2.78,15.16-.71,3.79-1.92,10.25-2.68,14.34-.76,4.1-1.75,9.31-2.19,11.58-.44,2.28-1.46,7.61-2.25,11.86-.8,4.25-1.82,9.58-2.27,11.86-.99,4.97-3.09,16.29-4.92,26.48-.74,4.1-1.72,9.37-2.19,11.72s-1.23,6.2-1.7,8.55c-.97,4.87-2.98,15.72-4.93,26.61-.74,4.1-1.71,9.31-2.16,11.58-.45,2.28-1.47,7.61-2.27,11.86-.8,4.25-1.81,9.58-2.26,11.86-.45,2.28-1.41,7.36-2.14,11.31-.73,3.94-2.1,11.27-3.03,16.27-.93,5.01-2.18,11.71-2.76,14.89-.58,3.19-1.43,7.65-1.89,9.93-.45,2.28-1.59,8.23-2.53,13.24-.94,5.01-2.08,10.96-2.53,13.24-.45,2.28-1.3,7.02-1.89,10.54-.59,3.52-1.2,6.75-1.36,7.17-.16.42-.92,4.25-1.68,8.49-.77,4.25-2,10.95-2.73,14.89-.74,3.94-2.08,11.14-2.97,16-.9,4.85-2.28,12.18-3.07,16.27-.79,4.1-1.92,10.05-2.5,13.24-.58,3.19-1.43,7.65-1.88,9.93-.45,2.28-1.72,9.1-2.82,15.17s-2.26,12.15-2.56,13.51c-.31,1.37-1.14,5.71-1.86,9.65-.72,3.94-1.95,10.52-2.74,14.62-.79,4.1-2.03,10.8-2.76,14.89-.73,4.1-1.7,9.31-2.14,11.58-.45,2.28-1.58,8.23-2.51,13.24-.93,5.01-2.06,10.84-2.5,12.96-.45,2.12-1.07,5.47-1.4,7.45-.79,4.83-3.68,20.32-4.68,25.1-.44,2.12-1.19,6.16-1.66,8.96-.47,2.81-.97,5.41-1.12,5.79-.25.67-1.62,7.98-4.39,23.58-.73,4.1-1.7,9.31-2.15,11.58-.45,2.28-1.48,7.61-2.28,11.86-.8,4.25-2.04,10.83-2.76,14.62-1.86,9.81-4.38,23.28-6.04,32.27-.78,4.25-1.8,9.58-2.25,11.86-.45,2.28-1.44,7.43-2.19,11.45s-1.98,10.6-2.73,14.62c-.75,4.02-1.99,10.66-2.74,14.76-.75,4.1-1.74,9.31-2.19,11.58s-1.58,8.23-2.52,13.24c-3.85,20.64-4.52,24.18-5.3,28.13-.45,2.28-1.44,7.49-2.19,11.58-.76,4.1-1.98,10.67-2.71,14.62-.73,3.94-1.96,10.65-2.74,14.89-.77,4.25-1.53,8.07-1.69,8.49-.16.42-.77,3.65-1.36,7.17-.59,3.52-1.44,8.26-1.89,10.54-.94,4.74-3.48,18.22-5.57,29.51-.78,4.25-1.8,9.58-2.25,11.86-.45,2.28-1.3,6.74-1.88,9.93s-1.42,7.65-1.87,9.93c-.45,2.28-1.46,7.61-2.26,11.86-.8,4.25-1.82,9.58-2.27,11.86s-1.31,6.99-1.91,10.48c-.6,3.49-1.56,8.7-2.14,11.58-.58,2.88-1.7,8.72-2.5,12.96-.8,4.25-1.82,9.58-2.28,11.86-.46,2.28-1.44,7.83-2.19,12.34-.75,4.51-1.47,8.37-1.6,8.58-.13.21-.74,3.22-1.35,6.69-.61,3.47-1.5,8.3-1.97,10.72-1.17,6.02-3.24,16.94-5.27,27.86-3.01,16.23-4.46,23.91-5.29,28.13-.45,2.28-1.32,6.98-1.93,10.45-.61,3.47-1.22,6.48-1.35,6.69-.13.21-.85,4.07-1.61,8.58-1.3,7.78-1.81,10.52-3.89,20.89-.49,2.43-1.41,7.47-2.05,11.2-1.14,6.66-1.15,6.87-.17,11.03,1.68,7.18,5.64,11.27,12.54,12.98,4.37,1.08,4.67,1.08,9.08-.1Z"/>
      <path class="cls-1" d="M667.79,2183.76c6.65-1.8,10.94-6.29,12.6-13.18.89-3.7.9-4.28.1-7.72-.47-2.05-1.62-7.76-2.54-12.69-.92-4.93-2.44-13-3.36-17.93-1.7-9.09-2.4-12.81-5.48-29.1-.94-5.01-2.32-12.33-3.05-16.27-4.09-21.9-4.81-25.73-5.57-29.51-.46-2.28-1.31-6.87-1.88-10.2-.58-3.34-1.42-7.93-1.87-10.2s-1.59-8.23-2.53-13.24c-.94-5.01-2.08-10.96-2.54-13.24-.46-2.28-1.3-6.87-1.88-10.2-.57-3.34-1.43-7.99-1.9-10.34-.47-2.35-1.24-6.2-1.71-8.55-.47-2.35-1.44-7.63-2.17-11.72-.72-4.1-1.58-8.69-1.9-10.2-.32-1.52-1.34-6.85-2.27-11.86-.93-5.01-2.06-10.96-2.52-13.24-.45-2.28-1.42-7.49-2.15-11.58-.73-4.1-1.97-10.8-2.76-14.89s-2.05-10.8-2.79-14.89c-.74-4.1-1.46-7.76-1.61-8.14-.14-.38-.78-3.84-1.41-7.69-.63-3.85-1.25-7.15-1.37-7.34-.12-.19-.84-3.93-1.6-8.31-.76-4.38-1.76-9.82-2.21-12.09-.46-2.28-1.47-7.61-2.26-11.86-.78-4.25-1.8-9.58-2.25-11.86-.46-2.28-1.42-7.56-2.15-11.74-.73-4.18-1.46-8.05-1.64-8.59-.17-.54-.79-3.82-1.38-7.29-.59-3.46-1.45-8.22-1.92-10.57-2.55-12.71-2.5-12.43-6.33-33.51-.91-5.01-2.04-11.09-2.51-13.51-2.51-12.89-4.07-21.12-7.71-40.68-1.83-9.81-4.5-23.97-6.11-32.41-.72-3.79-1.96-10.37-2.74-14.62-2.09-11.36-4.62-24.79-5.57-29.51-.46-2.28-1.32-7.09-1.92-10.69-.6-3.61-1.19-6.73-1.32-6.94-.13-.21-.86-3.96-1.62-8.34-.76-4.38-1.78-9.94-2.26-12.37-.48-2.43-1.35-6.9-1.92-9.93-2.82-14.97-4.55-24.1-5.3-27.86-.45-2.28-1.44-7.49-2.19-11.58-.75-4.1-2-10.8-2.77-14.89-.77-4.1-1.97-10.67-2.67-14.62-.7-3.94-1.66-9.03-2.13-11.31-.47-2.28-1.49-7.49-2.25-11.58-.77-4.1-2.14-11.42-3.05-16.27-.91-4.85-2.3-12.3-3.09-16.55-.78-4.25-1.8-9.58-2.25-11.86-.45-2.28-1.44-7.49-2.21-11.58-.76-4.1-1.98-10.67-2.72-14.62-.73-3.94-1.95-10.52-2.71-14.62-.76-4.1-1.75-9.31-2.2-11.58-.45-2.28-1.58-8.23-2.51-13.24-2.51-13.56-4.39-23.49-5.32-28.13-.45-2.28-1.3-6.87-1.88-10.2-.58-3.34-1.42-7.93-1.87-10.2-1.06-5.37-3.7-19.39-5.82-30.89-.92-5.01-2.04-10.84-2.49-12.96-.45-2.12-1.2-6.16-1.67-8.96-.47-2.81-.97-5.41-1.11-5.79s-.87-4.17-1.62-8.41c-2.92-16.49-4.16-23.2-4.44-23.94-.16-.42-.77-3.65-1.36-7.17-.59-3.52-1.56-8.88-2.17-11.92s-1.74-8.99-2.54-13.24-2.06-10.95-2.81-14.89c-.75-3.94-1.99-10.52-2.76-14.62-.77-4.1-1.76-9.31-2.2-11.58-.97-5-3.1-16.44-4.86-26.2-.71-3.94-1.69-9.16-2.17-11.58-.48-2.43-1.63-8.51-2.56-13.51-.93-5.01-2.05-10.84-2.49-12.96-.44-2.12-1.31-6.95-1.94-10.72-.63-3.77-1.24-7.01-1.36-7.2-.12-.19-.72-3.18-1.33-6.66-1.56-8.78-3.71-20.42-4.69-25.34-.94-4.73-3.48-18.19-5.57-29.51-.78-4.25-1.8-9.58-2.25-11.86-.45-2.28-1.44-7.49-2.19-11.58-.75-4.1-1.99-10.74-2.74-14.76-.75-4.02-1.98-10.6-2.73-14.62-.75-4.02-1.73-9.17-2.18-11.45-2.41-12.1-3.63-18.94-3.41-19.15.25-.25,74.81,24.55,79.21,26.35,3.12,1.28,18.66,6.51,73.64,24.78,23.97,7.97,47.42,15.83,52.13,17.48,8.94,3.14,63.3,21.32,74.74,25,11.03,3.55,52.32,17.59,53.5,18.19,1.49.76,8.69,3.03,12.28,3.87,2.48.58,3.49.54,6.89-.29,9.78-2.37,15.24-10.87,13.65-21.27-.71-4.65-2.62-18.39-5.01-36.07-.9-6.67-2.26-16.67-3.01-22.2-2.74-20.15-4.13-30.45-5.76-42.61-.91-6.83-2.3-17-3.08-22.62-2.59-18.69-4.12-29.96-5.45-40.27-.73-5.61-1.58-11.69-1.89-13.51s-.97-6.66-1.45-10.76c-.48-4.1-1-7.86-1.15-8.36-.15-.5-.88-5.59-1.62-11.31-.74-5.71-1.95-14.86-2.69-20.32-3.32-24.43-4.9-35.99-6.16-45.23-2.43-17.77-4.12-30.15-5.49-40.27-2.34-17.26-4.66-34.41-6.05-44.68-.74-5.46-1.98-14.52-2.76-20.13-.78-5.61-1.89-13.68-2.45-17.93-.57-4.25-1.46-9.46-1.99-11.58-1.89-7.57-6.49-11.71-16.24-14.61-3.19-.95-8.65-2.68-12.14-3.85-3.49-1.17-10.07-3.3-14.62-4.74-4.55-1.43-8.52-2.78-8.83-3-.3-.21-3.53-1.32-7.17-2.46s-7.61-2.41-8.83-2.82c-1.21-.41-8.29-2.64-15.72-4.94-7.43-2.3-16.12-5.02-19.31-6.04-3.19-1.02-12.62-4.01-20.96-6.64-8.34-2.63-20.38-6.48-26.75-8.55-6.37-2.07-14.56-4.67-18.2-5.77-3.64-1.1-7.12-2.23-7.72-2.52-2.27-1.07-26.2-8.81-53.78-17.41-6.1-1.9-22.97-7.23-41.92-13.25-6.22-1.97-16.15-5.16-22.06-7.08-5.92-1.92-13.73-4.42-17.38-5.56-3.64-1.14-6.87-2.26-7.17-2.49-.3-.23-4.27-1.59-8.83-3.02-11.66-3.65-40.89-12.88-68.95-21.78-29.52-9.35-45.22-14.41-46.33-14.92-1.98-.91-17.98-6.07-48.82-15.74-14.07-4.41-19.85-6.24-50.75-16.05-6.22-1.98-14.91-4.78-19.31-6.24-22.39-7.42-38.05-12.5-51.02-16.55-7.89-2.46-19.06-5.97-24.82-7.81-5.76-1.83-16.31-5.19-23.44-7.46-26.56-8.44-40.65-12.99-44.4-14.33-8.63-3.07-11.81-3.68-16-3.04-13.43,2.05-14.96,2.38-16.82,3.63-1.06.71-3.96,2.37-6.45,3.7l-4.52,2.41-2.37,6.34c-2.29,6.11-2.38,6.61-2.57,13.64-.19,7.27-.19,7.33,2.1,14.62,1.26,4.02,2.64,8.19,3.06,9.25.42,1.06,1.15,3.42,1.64,5.24.48,1.82,1.1,3.81,1.37,4.41.27.61,1.53,4.45,2.8,8.55,5.03,16.21,5.6,17.96,6.06,18.84.26.5.89,2.49,1.38,4.41s1.1,3.75,1.33,4.05.88,2.29,1.44,4.41c.56,2.12,1.34,4.48,1.73,5.24.39.76.71,1.69.71,2.06,0,.78,4.28,14.33,4.92,15.59.23.46.88,2.56,1.43,4.69.56,2.12,1.19,4.11,1.4,4.41s.8,2.04,1.31,3.86c.5,1.82,1.25,4.18,1.67,5.24.42,1.06,1.67,4.91,2.8,8.55,3.82,12.37,5.36,17.1,6.12,18.84.42.96.77,2,.77,2.31s.71,2.76,1.58,5.43,2.51,7.84,3.65,11.48c1.14,3.64,2.41,7.4,2.83,8.36.42.96.76,1.97.76,2.26s1.46,4.96,3.24,10.4c1.78,5.43,3.43,10.75,3.65,11.81.22,1.06.6,2.18.84,2.48.24.3.85,2.04,1.35,3.86.5,1.82,1.13,3.81,1.38,4.41.26.61,1.51,4.45,2.78,8.55,3.74,12.07,5.62,17.81,6.41,19.66.41.96.75,1.99.75,2.29s.72,2.75,1.61,5.43c1.66,5.03,4.38,13.51,10.79,33.56,2.04,6.37,3.91,12.08,4.16,12.69.25.61,1.37,4.08,2.48,7.72,1.11,3.64,3.08,9.85,4.38,13.79,1.3,3.94,3.42,10.52,4.71,14.62,1.29,4.1,3.28,10.3,4.41,13.79,1.13,3.49,3.11,9.69,4.39,13.79,1.28,4.1,2.68,8.23,3.11,9.18.43.96.78,2.03.78,2.39s.72,2.81,1.59,5.43c2.37,7.08,6.82,20.97,9.14,28.5,1.12,3.64,2.26,7.03,2.52,7.53.26.5.88,2.49,1.38,4.41.5,1.93,1.23,4.25,1.62,5.16.4.91,1.77,5.13,3.05,9.38,1.28,4.25,2.67,8.5,3.09,9.46.42.96.77,1.97.77,2.26s1.33,4.6,2.96,9.57c1.63,4.97,3.89,12.02,5.02,15.66,1.13,3.64,2.4,7.4,2.83,8.36.43.96.77,2.01.77,2.34,0,.62,4.15,13.8,4.97,15.78.25.61,1.51,4.45,2.8,8.55,1.29,4.1,3.54,11.11,5.01,15.6,1.47,4.48,2.67,8.45,2.67,8.83,0,.37.33,1.3.74,2.08.4.77,1.19,3.13,1.74,5.24.56,2.11,1.19,4.09,1.41,4.39.22.3.94,2.54,1.6,4.96.66,2.43,1.56,5.19,1.99,6.15.43.96.79,2,.79,2.32,0,.77,3.8,12.58,4.76,14.78.42.96.76,1.97.76,2.25s1.21,4.21,2.68,8.74c1.47,4.53,3.74,11.58,5.03,15.68,3.73,11.81,8.36,26.1,8.85,27.3.67,1.65,3.26,9.94,4.47,14.34.58,2.12,1.3,4.36,1.58,4.96.28.61.93,2.59,1.44,4.41.51,1.82,1.12,3.68,1.37,4.14.24.46,1.48,4.18,2.75,8.28,1.27,4.1,3.36,10.67,4.65,14.62,1.28,3.94,3.77,11.64,5.52,17.1,1.75,5.46,4.24,13.16,5.52,17.1,1.29,3.94,3.26,10.15,4.39,13.79,1.13,3.64,3.39,10.65,5.03,15.57,1.64,4.93,2.98,9.23,2.98,9.57s.34,1.4.76,2.35c.42.96,1.69,4.72,2.83,8.36,3.56,11.35,5.31,16.86,7.74,24.27,1.29,3.94,3.26,10.15,4.39,13.79,1.12,3.64,2.37,7.49,2.76,8.55.4,1.06,1.76,5.28,3.03,9.38,1.27,4.1,2.51,7.94,2.76,8.55.44,1.09,1.38,4.01,7.46,23.17,1.73,5.46,3.85,12.04,4.69,14.62.85,2.58,1.72,5.56,1.93,6.62.21,1.06.57,2.18.8,2.48.23.3,1.46,3.9,2.74,8,1.28,4.1,2.53,7.94,2.79,8.55.26.61,1.11,3.21,1.91,5.79,3.53,11.47,6.51,20.75,6.92,21.56.25.48,1.01,2.95,1.69,5.49.68,2.54,1.57,5.25,1.98,6.02.4.77.74,1.72.74,2.1,0,.38,1.09,3.98,2.41,8,4.4,13.34,6.84,21.07,7.25,23.02.22,1.06.72,2.42,1.1,3.03s1,2.48,1.38,4.14c.38,1.67.87,3.28,1.1,3.59s.82,2.04,1.33,3.86,1.13,3.81,1.4,4.41c.27.61,1.65,4.83,3.08,9.38,1.42,4.55,3.53,11.13,4.68,14.62,1.15,3.49,3.01,9.32,4.15,12.96,1.13,3.64,3.61,11.34,5.5,17.1,1.89,5.76,4.49,13.83,5.78,17.93,2.94,9.35,7.15,22.4,10.21,31.72,1.3,3.94,3.76,11.64,5.48,17.1,1.72,5.46,3.7,11.67,4.41,13.79.71,2.12,2.33,7.21,3.61,11.31,1.28,4.1,2.67,8.23,3.1,9.18.43.96.78,1.99.78,2.3,0,.55,1.7,5.97,6.34,20.23,1.28,3.94,3.27,10.15,4.41,13.79,1.14,3.64,2.42,7.4,2.83,8.36.42.96.76,2,.76,2.31s.71,2.76,1.58,5.43c.87,2.67,3.13,9.7,5.03,15.61,1.9,5.92,3.66,11.25,3.91,11.86.26.61.99,2.96,1.63,5.24.64,2.28,1.4,4.63,1.68,5.24.28.61.99,2.72,1.57,4.69,1.41,4.82,3.66,11.91,4.63,14.62.44,1.21.96,3,1.17,3.97l.38,1.77-4-1.11c-2.2-.61-4.17-1.21-4.38-1.34-.21-.13-13.88-3.7-30.37-7.94-16.5-4.24-32.55-8.38-35.68-9.21l-5.68-1.5-4.25,1c-7.44,1.74-11.35,5.66-13.1,13.12-.96,4.11-.96,4.44-.03,8.42.86,3.63,1.77,5.35,7.44,13.93,3.55,5.38,11.37,17.23,17.36,26.33,5.99,9.1,16.38,24.86,23.07,35.03,6.69,10.16,13.71,20.84,15.59,23.72,1.88,2.88,9.32,14.18,16.52,25.1,23.48,35.59,43.93,66.63,56.87,86.32,6.98,10.62,17.65,26.83,23.72,36.02,6.07,9.18,18.73,28.41,28.13,42.72,9.4,14.31,23.85,36.27,32.1,48.8,8.25,12.53,19.82,30.1,25.71,39.05,5.89,8.95,17.9,27.19,26.69,40.54,8.79,13.35,22.6,34.32,30.67,46.61,8.08,12.29,20.1,30.5,26.7,40.47,6.61,9.97,12.43,18.86,12.93,19.76,3.42,6.09,6.87,8.9,12.78,10.44,4.64,1.21,4.62,1.21,8.98.03Z"/>
      <path class="cls-1" d="M1080.38,2478.87c4.09-1.1,7.22-3.2,9.42-6.31,1.93-2.72,2.76-5.71,3.78-13.63.41-3.19,1.37-10.26,2.12-15.72s2.15-15.64,3.1-22.62c3.43-25.24,4.37-32.17,5.76-42.2,2.01-14.52,3.88-28.39,5.5-40.82.77-5.92,1.55-11.38,1.74-12.14s.92-5.97,1.64-11.58c1.27-9.99,2.39-18.27,5.75-42.75.92-6.67,2.28-16.6,3.02-22.06.74-5.46,1.99-14.52,2.76-20.13.78-5.61,2.02-14.92,2.77-20.68.75-5.76,1.49-11.1,1.65-11.86.16-.76.92-6.1,1.68-11.86,2.03-15.32,3.88-29.01,5.44-40.27,1.5-10.84,4.09-29.8,6.14-44.95.72-5.31,1.94-14.24,2.72-19.86.78-5.61,2.02-14.92,2.77-20.68.74-5.76,1.49-11.1,1.65-11.86.16-.76.92-6.09,1.69-11.86.76-5.76,2.01-14.95,2.76-20.41.75-5.46,1.97-14.4,2.7-19.86,3.53-26.29,4.17-30.99,4.43-32.27.15-.76.92-6.22,1.7-12.14.78-5.92,2.03-15.22,2.77-20.69.74-5.46,1.95-14.52,2.67-20.13.73-5.61,1.47-10.82,1.65-11.58.18-.76.97-6.34,1.76-12.41.78-6.07,2-15.25,2.71-20.41.71-5.16,1.93-14.09,2.71-19.86s2.05-14.95,2.81-20.41c.76-5.46,2.12-15.39,3.01-22.06s2.26-16.73,3.04-22.34c.78-5.61,2-14.8,2.73-20.41.72-5.61,1.46-10.83,1.64-11.58.18-.76.94-6.09,1.68-11.86.74-5.76,1.98-15.07,2.76-20.68,1.78-12.87,3.71-27.1,5.49-40.54.77-5.76,1.52-11.1,1.68-11.86.16-.76.93-6.22,1.7-12.14,1.42-10.81,2.84-21.34,5.46-40.27.78-5.61,2.14-15.67,3.03-22.34.89-6.67,2.26-16.73,3.05-22.34.78-5.61,2.03-14.67,2.77-20.13.74-5.46,2.1-15.51,3.04-22.34.93-6.83,2.31-16.88,3.05-22.34.75-5.46,1.97-14.4,2.71-19.86s1.98-14.52,2.74-20.13c.76-5.61,2.14-15.67,3.06-22.34.92-6.67,2.17-16.11,2.77-20.96.6-4.85,1.23-9.32,1.39-9.93.27-1.04,1.02-6.49,4.37-31.99.76-5.76,1.52-11.08,1.7-11.82.18-.74.93-6.07,1.66-11.86.73-5.79,1.95-14.99,2.7-20.45.76-5.46,1.99-14.6,2.74-20.32.75-5.71,1.51-11.05,1.68-11.86.17-.81.95-6.31,1.73-12.23,1.36-10.36,2.44-18.33,5.45-40.27.77-5.61,2.03-15.04,2.79-20.96.76-5.92,1.5-11.13,1.64-11.58.14-.45.9-6.04,1.68-12.41s2.04-16.3,2.78-22.06c.74-5.76,1.83-14.45,2.41-19.31.59-4.85,1.45-11.43,1.92-14.62.47-3.19,1.36-10.01,1.99-15.17.62-5.16,1.75-14.22,2.51-20.13.76-5.92,1.97-15.47,2.7-21.24.73-5.76,1.94-15.32,2.69-21.24.75-5.92,1.77-13.98,2.27-17.93.5-3.94,1.27-9.9,1.71-13.24.44-3.34,1.29-10.16,1.88-15.17.59-5.01,1.32-10.47,1.64-12.14.31-1.67.95-6.76,1.42-11.31.47-4.55,1.09-9.51,1.38-11.03.29-1.52,1.02-7.2,1.64-12.63.61-5.43,1.25-10.39,1.4-11.03s.89-6.25,1.63-12.47c.74-6.22,1.98-16.15,2.75-22.06.77-5.92,2-15.72,2.72-21.79.72-6.07,1.46-11.65,1.64-12.41.18-.76.94-6.59,1.7-12.96.76-6.37,2-16.42,2.76-22.34,2.17-16.91,4-31.34,5.47-43.21.75-6.02,1.49-11.6,1.66-12.41.17-.81.8-5.93,1.41-11.39.6-5.46,1.36-11.42,1.67-13.24.32-1.82,1.08-7.53,1.7-12.69.62-5.16,1.71-13.97,2.42-19.58,2.03-15.98,4.61-36.23,6.12-47.99.76-5.92,1.86-14.73,2.44-19.58.58-4.85,1.44-11.43,1.9-14.62s1.36-10.01,1.99-15.17c1.15-9.42,2.73-21.92,5.25-41.37.75-5.76,1.95-15.44,2.67-21.51.72-6.07,1.57-12.52,1.88-14.34.31-1.82,1.11-8.2,1.77-14.17,1.18-10.6,1.18-10.96.22-14.88-.98-4-3.96-10.26-30.16-63.35-13.1-26.56-21.82-44.22-34.81-70.6-5.6-11.38-15.03-30.49-20.94-42.47-5.91-11.98-14.91-30.23-19.99-40.54-5.08-10.31-14.2-28.81-20.25-41.09-6.06-12.29-14.13-28.67-17.93-36.41-3.8-7.74-12.62-25.61-19.58-39.71-6.96-14.11-15.96-32.35-19.99-40.54-4.03-8.19-11.79-23.95-17.24-35.03-9.35-18.99-15.96-32.38-40.66-82.46-5.69-11.53-12.05-24.38-14.14-28.56-2.09-4.18-3.81-7.86-3.81-8.18,0-1.15-3.46-5.37-5.71-6.98-2.83-2.01-9.45-3.71-12.67-3.26-8.9,1.25-12.03,4.04-17.57,15.68-2.13,4.47-5.09,10.68-6.58,13.8-1.49,3.12-2.7,5.76-2.7,5.87s-1.51,3.39-3.36,7.29c-1.85,3.9-4.23,8.96-5.3,11.23s-2.87,6.12-4.02,8.55c-1.14,2.43-2.76,5.9-3.6,7.72-1.52,3.32-5.17,11.06-9.1,19.31-1.89,3.96-4.16,8.84-7.98,17.1-.7,1.52-2.45,5.24-3.9,8.27-1.44,3.03-3.47,7.35-4.5,9.58-1.03,2.24-3.23,6.9-4.88,10.36-1.65,3.46-3,6.38-3,6.49s-1.5,3.36-3.33,7.22c-1.83,3.87-4.66,9.92-6.28,13.44s-4.36,9.39-6.09,13.03c-3.32,6.98-6.02,12.72-8.57,18.2-7.74,16.63-9.24,19.82-13.03,27.74-1.93,4.03-3.51,7.43-3.51,7.55s-1.86,4.1-4.14,8.85c-2.28,4.75-4.14,8.72-4.14,8.83s-1.86,4.07-4.14,8.83c-2.28,4.75-4.14,8.72-4.14,8.82s-1.46,3.24-3.24,6.98c-1.78,3.74-3.86,8.17-4.62,9.84-.76,1.67-2.55,5.52-3.98,8.55-1.43,3.03-3.17,6.76-3.88,8.27-.71,1.52-2.57,5.49-4.14,8.83-1.57,3.34-3.61,7.68-4.53,9.65-.92,1.97-2.61,5.57-3.76,8-2.42,5.13-6.16,13.14-7.97,17.1-2.81,6.14-5.93,12.77-6.62,14.07-.4.76-3.26,6.84-6.36,13.51-6.76,14.55-13,27.88-16.39,35.03-1.37,2.88-3.97,8.47-5.78,12.41s-4.23,9.16-5.39,11.58c-1.16,2.43-2.85,6.03-3.76,8-1.51,3.28-5.5,11.75-9.48,20.13-1.52,3.19-4.81,10.26-7.45,16-.7,1.52-2.51,5.36-4.03,8.55-3.79,7.96-7.66,16.18-9.48,20.13-.84,1.82-2.39,5.17-3.46,7.45-2.62,5.6-4.72,10.1-10.1,21.64-2.56,5.5-4.98,11.58-5.52,13.89-1.17,4.98-1.34,3.27,6.1,62.38,3.29,26.09,4.22,33.63,5.52,44.68.75,6.37,1.51,12.23,1.68,13.03s.91,6.5,1.65,12.69,1.95,16.08,2.7,22c.75,5.92,1.98,15.72,2.75,21.79.76,6.07,2.01,16.24,2.77,22.62.76,6.37,1.53,12.44,1.72,13.48.19,1.04.96,7,1.72,13.24.76,6.24,1.95,15.93,2.66,21.54.71,5.61,1.92,15.67,2.71,22.34.78,6.67,1.56,12.69,1.71,13.36.16.68.91,6.38,1.66,12.69.75,6.3,2,16.42,2.77,22.49,1.42,11.24,2.74,21.76,5.8,46.33,2.36,18.98,4.09,32.77,5.73,45.78.76,6.07,2,16.22,2.76,22.55.75,6.34,1.51,12.17,1.68,12.96.17.79.93,6.66,1.69,13.03.76,6.37,2.01,16.55,2.77,22.62,2.57,20.38,4.07,32.47,5.46,44.13.76,6.37,1.52,12.33,1.7,13.24.18.91.92,6.62,1.66,12.69s1.63,12.89,1.99,15.17c.36,2.28.61,5.63.55,7.45s.28,6.16.76,9.65c.47,3.49,1.46,11.06,2.2,16.82.74,5.76,1.48,11.1,1.64,11.86.16.76.93,6.22,1.7,12.14.77,5.92,2.02,15.35,2.77,20.96.75,5.61,1.85,14.05,2.43,18.75.58,4.7,1.32,9.91,1.64,11.58.32,1.67,1.21,8,1.96,14.07.76,6.07,2,15.62,2.76,21.24,2.69,19.82,4.06,30.18,5.46,41.09.78,6.07,1.54,11.65,1.7,12.41.16.76.92,6.22,1.69,12.14.77,5.92,2,15.22,2.74,20.68.73,5.46,1.95,14.52,2.71,20.13.76,5.61,2.14,15.91,3.07,22.89,3.7,27.62,4.41,32.93,5.78,43.02.78,5.76,2.03,15.07,2.76,20.68s2.09,15.79,3.02,22.62c.93,6.83,2.3,17,3.04,22.62.74,5.61,1.97,14.8,2.73,20.41.76,5.61,2.14,15.91,3.08,22.89.93,6.98,2.31,17.28,3.07,22.89.75,5.61,1.98,14.8,2.73,20.41.75,5.61,1.97,14.67,2.73,20.13.75,5.46,2.12,15.64,3.05,22.62.92,6.98,2.3,17.28,3.07,22.89.76,5.61,1.99,14.8,2.74,20.41,1.45,10.99,3.09,23.22,5.8,43.3.94,6.98,2.32,17.22,3.05,22.75,2.53,18.98,4.04,30.22,5.75,42.89,3.79,28.01,5.18,38.49,8.22,61.78.63,4.85,1.65,12.3,2.27,16.55,1.17,8.09,2.02,14.57,3.85,29.23.61,4.85,1.36,10.19,1.68,11.86s1.06,6.88,1.64,11.58c.58,4.7,1.82,14.26,2.76,21.24,1.99,14.73,3.85,28.89,5.45,41.37.62,4.85,1.38,10.19,1.68,11.86.3,1.67,1.07,7.25,1.69,12.39.63,5.15,1.26,9.86,1.41,10.48.29,1.2,2.39,17.1,4.11,31.18.58,4.7,1.32,10.04,1.65,11.86.33,1.82,1.07,7.16,1.65,11.86.58,4.7,1.32,10.29,1.64,12.41.32,2.12,1.09,7.83,1.71,12.69.62,4.85,1.74,13.29,2.48,18.75.75,5.46,1.96,14.52,2.7,20.13.74,5.61,2.12,15.91,3.05,22.89.94,6.98,2.32,17.28,3.08,22.89.75,5.61,1.98,14.8,2.72,20.41.74,5.61,1.98,14.8,2.75,20.41.77,5.61,2.15,15.91,3.08,22.89,1.93,14.62,3.73,28.12,5.76,43.02.78,5.76,2.02,14.95,2.74,20.41.73,5.46,2.09,15.64,3.04,22.62.94,6.98,2.33,17.28,3.08,22.89.75,5.61,1.97,14.67,2.71,20.13.74,5.46,1.97,14.89,2.73,20.96.76,6.07,1.63,12.27,1.92,13.79s.92,6.23,1.39,10.48c.47,4.25,1.11,9.09,1.43,10.76.32,1.67,1.05,6.88,1.63,11.58,2.33,18.88,4.11,28.84,5.47,30.61.23.3.89,1.92,1.45,3.59,2.17,6.42,6.21,10.22,12.49,11.77,4.44,1.1,5.76,1.08,10.16-.1Z"/>
    </g>
  </g>
</svg>