<?xml version="1.0" encoding="UTF-8"?>
<svg id="Layer_2" data-name="Layer 2" xmlns="http://www.w3.org/2000/svg" viewBox="0 0 2359.13 1045.37">
  <defs>
    <style>
      .cls-1 {
        stroke: #fff;
        stroke-miterlimit: 10;
        stroke-width: 10px;
      }
    </style>
  </defs>
  <g id="Stacked_Simplified" data-name="Stacked Simplified">
    <g>
      <path class="cls-1" d="M308.01,211.52l-114.24,11.64c-.77.08-1.17.6-1.2,1.54-1.92.2-12.19,62.43-30.99,187.85l.72,14.44c-2.32.2-3.71,7.57-4.16,22.14-.07,2.35.18,6.04.75,11.04l-.14.57c-1.43.28-2.2,2.28-2.31,6l-1.16.09c.22-7.3-.13-20.85-1.07-40.61-.38.03-.77.11-1.16.2l.18-5.92c.76-20.62-2-49.85-8.4-99.98-5.11-61.2-8.7-91.49-10.79-91.28l-70.41,7.18-2.31,1.64.13,1.07-6.13.81.41-2.71-33.72,3.44c-1.31.13-2.09,1.15-2.35,3.04l-4.33,110.23c-.09,2.3.91,2.7,2.25,2.64l-.45,1.99-.84-.46-1.24,2.95-.31,8h0s-3.29,83.61-3.29,83.61c-.08,1.92.64,2.82,2.16,2.69-1.64,3.25-2.5,6.19-2.61,8.83l-.11,2.88c1.48-.32,2.75-.68,3.83-1.08l-.46,7.07c-2.45,1.19-3.71,2.56-3.77,4.11l-2.22,56.48.85,7.18c-.76.06-1.2,1.54-1.31,4.45l-.4,10.19c-.02.42.47.95,1.44,1.58l-.66,10.27c-.66.4-1.14,1.17-1.35,2.73l-.23,5.84c.28.77.58,1.46.9,2.07l-.57,8.79-.79.83-1.15,29.3c-.08,1.96.64,2.88,2.17,2.78l4.58-.32,2.35-1.63c-.04.98.32,1.44,1.09,1.39l58.76-4.06c1.54-.11,2.35-1.14,2.42-3.11l.98-28-2.16-4.25c-1.19.09-2.35.25-3.49.49l.3-7.86,5.87-3.09.67-19.07c.06-1.71-.68-2.63-2.2-2.76l-1.15.09c-.93.07-1.7.59-2.3,1.55l.46-12.22c3.83-1.79,5.78-3.21,5.82-4.23l1.64-46.67c.06-1.69-.67-2.6-2.2-2.72l2.45-4.54.25-7.26c.03-.96-1.77-2.19-5.37-3.69l.23-6.02,2.06-.17,2.25,1.26,1.25-2.99.05-1.45c.02-.48-1.43-2.77-4.34-6.86-.31.14-.61.28-.9.41l.23-6.24,3.07,2.74c1.53-.13,2.33-1.15,2.4-3.09l.46-13.02c.08-2.4-1.4-3.72-4.43-3.94l.36-10.1c1.53-.13,2.26.77,2.19,2.69l2.34-1.64c-.37-11.23-.46-19.36-.28-24.39.23-8.82,1.15-19.19-.13-28.62.76-.07,1.5-10.13,2.2-30.16l1.14-.11c-.11,3.09.9,18.39,3.03,45.97h0l.02.2c.32,4.15.67,8.56,1.04,13.26v.05c.4,4.99.82,10.28,1.27,15.9-.31,8.9,1.68,13.86,5.96,14.91l.56,6.14-3.83.32c-.38,6.48.31,12.3,3,12.74.67-.05,1.33-.11,2-.18l.46,5.02c-1.78,1.12-2.7,2.4-2.75,3.86l-.1,2.9,1.05,2.81c.92-.14,1.79-.29,2.63-.43l.65,7.12c-1.24.29-2.04.45-2.37.48l-.2,5.82c-.12,3.58,1.17,6.25,3.87,8.01l1.29,14.19-1.29-.73c-.03.97-.44,1.49-1.2,1.55.31,7.74.95,11.57,1.92,11.5-.32,9.52,1.08,16.83,4.2,21.94l2.63,19.11-1.31.91c-.62,11.39.8,20.02,4.52,22.36l.08.56.36,3.91-1.2-.69c-.03.98-.44,1.5-1.21,1.56,1.93,23.44,3.87,35.11,5.82,34.98l70.42-4.86c1.62-1.6,6.24-26.18,13.85-73.59l-1.1-2.87c.05-1.72.86-2.77,2.44-3.13,12.73-64.21,24.01-134.72,33.83-211.37l1.17-.11c-.97,40.2-1.23,38.24-5.43,118.08l-4.39,167.22c-.05,2,.71,2.93,2.3,2.83l69.4-4.79c1.6-.11,2.43-1.17,2.47-3.17l8.37-382.15c.04-1.67-.73-2.55-2.29-2.63ZM81.61,385.33l-.2-2.44c.16.73.37,1.41.65,2.05-.17.01-.32.15-.46.39Z"/>
      <path class="cls-1" d="M497.92,582.73l.03-3.05c.02-1.78-.8-2.74-2.46-2.88l2.6-10.85.05-4.57c.02-1.77-.8-2.73-2.45-2.87l-1,.07-.4-15.33.31.13c2.5-1.7,3.75-3.31,3.77-4.83l.54-51.51c.02-1.76-.8-2.7-2.44-2.83l-48.04,3.72c-.61.05-1.24.66-1.86,1.83l-5.56.34.04-.1-2.43-1.31-28.11,2.18c-.77-11.92-.99-17.82-.82-25.35l1.36-9.06c-.79-1.67-1.15-4.13-1.1-7.36l.19-11.92c1.95-.16,3.93-1.25,5.92-3.27l4.77-.14c.09.79.18,1.62.25,2.52l2.46-1.69-.14-.9,7.45-.22-.03,2.01,60.05-4.93c1.64-.13,2.47-1.2,2.5-3.2l.74-68.66-1.11-10.29c.81-.07,1.25-2.09,1.29-6.05l.05-4.45c.02-1.73-.79-2.64-2.42-2.75l-8.57.77-6.13,2.03c.01-.98-.39-1.44-1.2-1.37-1.43.13-2.25,1.19-2.48,3.18-.82.07-2.03-.31-3.64-1.15l-4.9,1.92-3.62-2.63-7.31.66-2.45,1.7c.01-.98-.39-1.44-1.2-1.37-1.82.16-3.46.81-4.88,1.91-1.41-.85-3.02-1.2-4.84-1.04l-6.07.55c-1.42.13-2.24,1.19-2.47,3.17l-3.59-2.62-4.85.44-6.07,2.02c-4.03.36-6.01-1.91-5.93-6.82-.82.03-1.53.1-2.11.38l.28-27.42c.58-.5,1.33-.79,2.27-.88l.25-16.12,15.68-1.48c.01-.68-.18-1.57-.55-2.69l5.42-.5-.04,2.73c2.14-.1,4.36-.63,6.07-2.04,1.4.85,3.01,1.18,4.82,1.01l6.06-.57c.82-.08,1.61-1.05,2.36-2.9l6.16-.56-.03,2.66,41.43-3.9c1.63-.15,2.46-1.21,2.48-3.18l.47-45.57-3.84-8.11v-7.6l.35-.03c2.45-1.71,3.69-3.29,3.7-4.75l.23-21.91c.02-1.7-.79-2.59-2.4-2.67l-20.63,2.11-2.44,1.7.02-1.45-6.07,2.07c-.81.08-2.01-.28-3.61-1.08-7.27,1.95-10.91,3.78-10.93,5.47,0,.1,0,.18.01.27l-11.6,1.15c-1.24-2.93-4.18-4.17-8.84-3.7-1.4.14-3.42,1.32-6.05,3.51-7.38-1.18-11.77-1.69-13.16-1.55-5.8.59-9.01,2.36-9.65,5.32v.17s-2.67.27-2.67.27c.19-.45.29-.99.3-1.64.03-1.68-.76-2.57-2.35-2.65-1.95.1-3.29.4-3.63,3.26l-.03,1.59-7.02.7c-1.48-1.34-2.71-2.7-3.65-4.09l-4.77.49c-1.39.14-2.21,1.19-2.44,3.13l-2.36-1.2-2.38.24-.05,2.99-5.88.59c-1.66-2.76-2.85-4.12-3.56-4.04l-2.38.24-.08,4.33,2.38-.24v.08s-12.34,1.23-12.34,1.23c.16-.46.32-.97.49-1.54l-1.13-2.76c-2.23.23-6.72,2.13-13.47,5.7l-5.16.51c-1.04-.86-1.56-1.76-1.54-2.72-1.38.14-2.19,1.18-2.42,3.12l-.15,7.2h.15s0,18.69,0,18.69l-.54.05-.12,5.78c.22-.01.44-.03.65-.05v12.07c-.41,1.39-.75,3.16-1.01,5.33l-.03,1.45,1.04,2.57v.22c-1.35.16-1.12,1.76-1.16,3l1.16-.11v18.86c-1.05,1.05-1.59,2.06-1.61,3.01l-.09,4.36,1.19-.11c.18-.07.35-.16.51-.25v3.1l-1.76.17-.48,23.3,2.09,3.79-.16,15.02-2.35,1.63c-.04,1.94.72,2.84,2.3,2.71v.06c-.84,2.32-1.76,8.71-2.75,19.18l2.55-.23-.04,3.35c-1.16.79-2.03,1.22-2.61,1.27l-.36,17.61c-.05,2.55,1.18,2.84,2.74,2.71l-.06,5.21c-.34,1.24-.53,2.94-.57,5.1-.02,1.14.14,2.04.49,2.71l-.1,8.97-3.12,4.73-.18,8.85c-.07,3.2.28,5.63,1.04,7.28l-1.38,8.97-1.16,56.39,1.14,2.88c-.8.06-1.21.59-1.23,1.58l-1.95,94.37c-.04,2.01.74,2.96,2.36,2.85l169.26-11.68c1.66-.11,2.5-1.19,2.52-3.23ZM490.95,421.57h.03s-.03,2.99-.03,2.99v-2.99ZM446.74,342.18l6.08-.55v.71s-7.6.59-7.6.59l1.52-.75ZM498.92,216.82c.12,0,.25,0,.38,0l-.38.93v-.92ZM331.04,370.12l-.24.02.03-1.47.23-.06-.02,1.51Z"/>
      <path class="cls-1" d="M526.11,583.83l83.11-5.74c1.69-.12,2.54-1.2,2.55-3.26.06-12.91.31-24.12-1.12-38.35.86-4.15,1.3-8.27,1.31-12.36,0-1.02-.42-2.52-1.25-4.5.85-1.84,1.28-3.92,1.29-6.22-.14-19.03,1-56.38-.97-76.06.84-1.58,1.28-4.65,1.29-9.19,0-1.01-.4-5.01-1.21-12.01l34.01-2.8-.21,116.04,1.27,2.98c-.85.06-1.27.61-1.27,1.63l-.07,38.54c0,2.06.84,3.03,2.55,2.91l83.51-5.76c1.72-.12,2.58-1.21,2.58-3.29l-.11-32.61-2.58.19-.71-6.02c.89-2.37,1.97-6.1,3.23-11.2l-.35-101.48-1.29-2.95c.85-.07,1.28-.61,1.28-1.63l-.02-4.58c-22.88-26.52-34.78-39.67-35.84-39.57,13.33-17.3,25.17-33.48,35.54-48.51l-.12-34.68c-.43.04-.94.06-1.48.07l-1.07-20.25c1.64-1.36,2.47-2.65,2.47-3.86l-.13-37.42-19.04-21.98-2.4,1.65-4.69-5.38c.26-.04.51-.08.77-.1v-1.49c-6.94-9.2-11.56-13.67-13.86-13.44l-16.49-3.19.18-1.07-2.5-1.22-1.25.13v1.48s-59.52,8.66-59.52,8.66c-1.82-1.71-2.73-2.98-2.73-3.8-8.13,2.38-14.01,4.65-17.64,6.81l-4.73.71c-.31-3.45-1.5-5.08-3.58-4.87l-3.7.38c-1.86,1.9-5.56,3.74-11.11,5.53-1.21-2.81-2.43-4.15-3.66-4.02l-2.46.25c-1.64.17-2.47,2.21-2.5,6.11-.82.08-1.22-.36-1.22-1.34-1.31.13-3.14,1.14-5.48,3.01l-1.98.3c-.63-.38-1.01-1.19-1.13-2.43-1.38.14-2.19,1.14-2.44,2.96l-.36.05-2.12-1.06-3.68.37-7.36,2.21c-1.63-.81-2.85-1.17-3.66-1.09-1.11.11-2.03.95-2.77,2.49h-.01s0,.03,0,.03c-1.44,3-2.2,8.65-2.27,17,.77,5.05,1.13,9.9,1.09,14.55-.09,12.12-.61,25.85-1.62,44.28l1.7,5.07-.32,23.22c-.27.38-.41.77-.41,1.17l-.1,11.86.33.58-.13,9.25-.3.56-.18,20.82-1.39,17.99c.82-.07,1.23.39,1.22,1.38l-1.23.11c-.03,2.98.35,6.44,1.14,10.34l-1.45,24.04c-.1,10.75.25,18.22,1.04,22.4-.91,9.59-1.41,19.15-1.49,28.69-.27,29.12-.13,59.61.42,92.36-.93,10.99-1.45,23.24-1.57,36.74-.02,2.04.8,3,2.47,2.89ZM606.38,275.67l1.52-.14c2.5-1.72,3.75-3.33,3.75-4.81l.03-7.43,17.45-1.66c1.15-.11,1.9-.67,2.26-1.66l14.06,2.29c.8,1.54,1.97,2.65,3.52,3.35l.87,25.39-.74.07c-1.88.17-3.14,3.28-3.78,9.32-.11,8.92-.26,22.63,4.99,22.02-.08,2.72.61,5.97-2.52,6.23l-33.86,3.03c-1.46.13-2.29-.79-2.49-2.77l.13-34.36-1.25.12-3.75,3.33-.19.02v-22.32Z"/>
      <path class="cls-1" d="M865.43,560.41l6.6-2.03c.01,1.05,1.34,1.48,3.99,1.3l47.87-3.3c30.42-37.43,45.74-56.95,45.94-58.54-.59-17.27-.14-62.77-2.72-79.84.86-1.63,1.25-4.79,1.17-9.46-.14-7.97-.9-14.11-2.27-18.43l.07-6.69c1.16-.56,1.74-1.51,1.71-2.89l-.03-1.55c-.02-1.12-.56-1.89-1.61-2.32l.09-8.43-3.23,1.3c.64-.73,1.7-1.17,3.23-1.3l-.05-3.1c-10.41.88-26.71,4.83-48.89,11.85-27.19,4.33-40.71,8.55-40.66,12.66l.95,79.05-32.86,2.51-1.44-143.25-1.33-2.94c.86-.08,1.29-.62,1.28-1.64-.01-14.22-.23-36.01-2.64-47.94v-2.35l2.12-1.45c-.02-2.27-.73-4.48-2.12-6.63v-9.29c1.28-2.12,1.91-5.39,1.86-9.82l32.42-3.07.22,18.21c.03,1.74.62,2.45,1.5,2.7v5.04c-.92,1.15-1.38,2.12-1.38,2.91l.44,36.59,1.34,2.94c40.69-8.16,62.46-13.98,65.15-17.43l4.81-1.23c.21.9.47,1.43.78,1.58,11.45-1.03,17.16-3.08,17.1-6.16l.24-16.62.68-6.51-.32-18.36c-.04-2.29-.52-4.29-1.43-5.99.85-1.86,1.25-3.94,1.21-6.23l-.53-30.47c-.07-4.15-4.01-9.96-11.79-17.43h0s-.07-.06-.07-.06c-1.32-1.26-2.75-2.58-4.29-3.93l-13.22-12.12c-3.68-5.48-9.92-11.9-18.69-19.26l-117.37,11.95c-29.34,36.32-44.1,55.22-44.3,56.74l1.41,293.85c29.22,33.92,44.59,51.09,45.9,51.25l63.15-4.36Z"/>
      <path class="cls-1" d="M993.38,330.22l.61-.05.3,4.62c-.52,1.32-.76,3.41-.7,6.27.03,1.74.49,2.94,1.35,3.63l.48,7.32-4.17,6.34.18,9.32c.06,3.37.56,5.93,1.48,7.66l-1.16,9.45,1.12,59.38,1.4,3.03c-.9.07-1.33.63-1.31,1.67l1.87,99.43c.04,2.12.96,3.11,2.76,2.99l189.24-13.06c1.85-.13,2.75-1.26,2.69-3.41-.1-1.5.05-3.01-.24-4.17l-.69-11.69.39-1.85-.15-4.82c-.03-.94-.28-1.66-.77-2.16l-1.13-19.2c.79-.93,1.19-1.83,1.17-2.7l-1.65-54.3c-.06-1.85-1.01-2.84-2.86-2.97l-53.71,4.16c-.58.05-1.15.52-1.71,1.43h-8.07l-1.17-.58-31.41,2.43c-1.37-12.55-1.88-18.75-2.02-26.7l1.13-9.55c-.95-1.76-1.47-4.34-1.55-7.75l-.31-12.56c2.26-.19,4.5-1.41,6.71-3.7,0-.13-.01-.26-.03-.4l4.98-.57c.2,1.12.39,2.33.57,3.67l2.68-1.79-.44-2.2,8.54-.99.11,4.09,67.1-5.51c1.55-.13,2.41-.96,2.61-2.48h0v-.02c.03-.27.05-.56.04-.89l-2.16-72.33-1.7-10.83c.91-.08,1.31-2.2,1.18-6.37l-.14-4.69c-.05-1.82-1-2.78-2.83-2.88l-9.57.86-6.78,2.17c-.03-1.04-.5-1.52-1.41-1.44-1.59.14-2.47,1.27-2.64,3.36-.91.08-2.29-.31-4.13-1.19l-5.41,2.05-4.17-2.75-8.16.73-2.68,1.8c-.03-1.03-.5-1.51-1.4-1.43-2.04.18-3.84.87-5.39,2.04-1.61-.89-3.43-1.25-5.47-1.07l-6.77.61c-1.58.14-2.46,1.26-2.63,3.35l-4.14-2.74-5.41.49-6.72,2.16c-4.5.4-6.81-1.97-6.94-7.14-.17,0-.33.02-.49.03l-.53-29.36c.1-.01.2-.04.3-.05l-.41-16.96,17.5-1.65c-.02-.69-.25-1.6-.69-2.71l6.01-.55.07,2.76c2.36-.11,4.85-.68,6.71-2.18,1.6.88,3.42,1.23,5.45,1.03l6.76-.64c.89-.08,1.72-1.07,2.48-2.94l6.93-.63.07,2.68,46.25-4.36c1.82-.17,2.7-1.29,2.64-3.36l-1.46-47.96-2.04-3.73-.69-14.26c1.41-1.27,2.11-2.46,2.08-3.58l-.7-23.05c-.05-1.79-.99-2.72-2.81-2.79l-23.03,2.35-1,.68-1.68.21-.02-.62-3.04,1-6.11.77c-.5-.17-1.05-.4-1.65-.67-2.02.53-3.78,1.04-5.29,1.55l-22.66,2.86c-1.76-.85-4.1-1.14-7.04-.84-1.21.12-2.82.91-4.8,2.33l-6.26.79c-5.66-.75-9.11-1.06-10.37-.93-4.75.48-7.9,1.63-9.48,3.44l-3.85.49c-.19-1.45-1.09-2.22-2.7-2.29-2.02.12-3.53.36-3.89,3.12l-9.64,1.22c-.94-.89-1.76-1.79-2.46-2.71l-5.32.54c-1.55.16-2.42,1.26-2.59,3.31l-2.69-1.25-2.66.27.04,1.81-7.28.92c-1.58-2.18-2.72-3.23-3.4-3.16l-2.65.27.08,3.65-10.86,1.37c.09-.29.17-.58.25-.91l-1.38-2.9c-2.41.25-7.12,2.16-14.12,5.72l-6.59.83c-1.11-.86-1.68-1.78-1.7-2.75-1.54.16-2.4,1.26-2.58,3.29l.14,7.57.22-.02.95,19.66-.81.08.11,6.07c.34-.02.67-.04.99-.08l.57,11.74c-.55,1.57-.96,3.76-1.21,6.59l.03,1.52,1.38,2.92c-1.61.12-1.27,1.81-1.26,3.18l1.32-.13.41-.36.95,19.66c-1.52,1.31-2.28,2.55-2.25,3.72l.09,4.59,1.32-.13c.44-.17.84-.41,1.21-.7l.18,3.63,1.39-.13.12,5.08c-.96-1.2-1.47-2.85-1.51-4.96l-2.65.25.46,24.51,1.36,20.86-.96.65c.02,1.33.42,2.19,1.17,2.59l.42,6.46c-.41,3.45-.79,8.13-1.15,14.06l2.06-.18.25,3.86c-.95.58-1.69.9-2.22.95l.35,18.54c.04,2.07.94,3.02,2.72,2.86Z"/>
      <path class="cls-1" d="M1284.37,528.24l1.41-.1,4.36,2.95-.18-4.87,4.24-.29-1.3,3.35.06,1.62,8.5-.59c1.89-.13,2.8-1.28,2.71-3.45l-3.36-90.51-1.71-7.93c.94-.07,1.35-1.71,1.23-4.93l-.06-1.6c-.08-2.14-1.53-3.1-4.34-2.88l-.18-4.81c2.81-.22,4.18-1.39,4.1-3.54l-2.07-55.91c-.17-4.51-.85-10.3-2.05-17.38-1.4.12-3.4.58-5.99,1.39l-.4-6.61c.84-1.2,2.4-2.07,4.69-2.59-.29-7.93-2.94-28.88-7.91-62.74l-.12-3.15,1.39-.13c8.75,34.84,15.18,56.53,19.24,64.95.88,11.09,13.47,45.24,37.95,102.9,22.51,62.24,35.29,93.51,38.16,93.31l105.66-7.29c1.94-.13,2.87-1.3,2.76-3.5l-5.73-119.13,2.16,1.4-6.35-85.71s.09-.02.13-.02l-2.62-54.5-1.53.14-.38-5.19,1.53-2.93-7.23-150.28c-.09-1.82-1.09-2.77-2.99-2.85l-2.84.29-10.7,1.61-.65-.45-64.88,6.61c-1.64.17-2.53,1.3-2.67,3.4l7.24,168.42,10.63,80.9.14,3.21-1.43.12c-6.64-21.19-12.25-41.05-16.84-59.61-48.55-126.54-73.34-188.68-75.19-188.49l-103.14,10.5c-1.59.16-2.47,1.28-2.63,3.35l6.73,210.25c.05,1.58,1.24,2.66,3.57,3.26l.21,5.65c-1.08.2-2.23.39-3.48.57l6.03,188.41c.07,2.16,1.03,3.17,2.9,3.04l59.06-4.08,4.12-3.54Z"/>
      <path class="cls-1" d="M1790.64,105.68c.92,13.29,1.45,28.37,1.77,48.6l3.55,7.82,2.32-.73,2.09,21.45c-2.93,1.2-4.36,2.46-4.27,3.78l.88,13.02,3.34,4.61.11,1.63-2.68,5.17,1.54,22.87-.18,19.78c1-.09,1.55.42,1.62,1.51l-1.51.13c.22,3.28.98,7.07,2.29,11.36l.26,26.44c.8,11.82,1.85,20.03,3.18,24.62-.31,10.56-.11,21.08.6,31.57,2.14,32.05,4.91,65.6,8.38,101.66-.21,12.11.19,25.61,1.19,40.49.15,2.25,1.25,3.3,3.3,3.16l102.06-7.05c2.08-.14,3.03-1.34,2.87-3.61-1.08-14.34-1.67-26.63-4.68-42.27.7-4.58.89-9.12.56-13.63-.08-1.12-.73-2.77-1.93-4.95.89-2.04,1.24-4.33,1.06-6.86-1.82-21.08-3.62-62.19-7.73-83.75.9-1.75,1.17-5.13.81-10.13-.08-1.11-.93-5.51-2.52-13.2l41.73-3.44,9.74,127.83,1.82,3.28c-1.04.08-1.52.68-1.43,1.81l3.24,42.5c.17,2.28,1.3,3.34,3.4,3.19l102.78-7.09c2.12-.15,3.09-1.36,2.9-3.66l-2.97-35.99-3.18.23c.09,1.06-.33,2.06-1.23,3l-1.02-7.51c1.1-2.16,2.39-6.99,3.88-14.51l-9.25-111.87-1.85-3.24c1.05-.09,1.53-.69,1.44-1.81l-.42-5.05c-15.05-14.26-26.53-24.96-34.46-32.15h0s0,0,0,0c-8.18-7.41-12.59-11.09-13.25-11.03,14.96-19.19,28.2-37.12,39.7-53.78l-3.15-38.14-4.02-22.92c1.31-1.24,1.92-2.41,1.83-3.52l-3.4-41.13-25.4-23.91-2.96,1.94-6.59-5.88c.46-.07.93-.14,1.42-.18l-.13-1.63c-9.36-10.01-15.44-14.87-18.26-14.58-1.69.41-3.29.87-4.81,1.38l-2.41-1.61-13.93,1.96.67-6.21-3.19-1.31-1.53.16.13,1.62,1.79,3.09-2.94,1.93-1.53.16-4.85-2.78c-1.54.58-2.97,2.43-4.31,5.56l-41.52,5.85c-.36-.57-.72-1.16-1.09-1.76l-13.67,1.38c-5.36-3.53-8.08-5.96-8.17-7.3-1.29.36-2.52.71-3.72,1.06h0s-.02,0-.02,0c-11.7,3.45-18.83,6.65-21.37,9.6l-1.51.15c-.39-5.37-2.09-7.9-5.1-7.6l-4.52.46c-2.13,2.11-6.53,4.18-13.2,6.2-1.73-3.06-3.35-4.52-4.85-4.37l-3,.31c-2.01.2-2.85,2.45-2.55,6.74-1,.1-1.54-.38-1.61-1.46-1.75.18-4.18,1.51-7.28,3.97-1.75.18-2.83-.79-3.22-2.91-1.75.18-2.68,1.35-2.78,3.52l-3.11-1.3-4.49.45-8.86,2.51c-2.07-.86-3.6-1.25-4.59-1.15-3.98.4-5.5,7.56-4.57,21.47,1.37,5.53,2.24,10.85,2.58,15.94ZM1897.12,149.28l-.6-8.16,21.37-2.03c1.37-.13,2.23-.71,2.6-1.74l16.21-.6c.92,2.78,2.55,4.77,4.89,5.98l1.87,29.25c-1.33,1.38-2.1,4.54-2.3,9.5.65,10.38,1.72,24.85,8.05,24.15.15,3.14,1.25,6.52-2.58,6.88,0,0-41.5,3.71-41.5,3.71-1.79.16-2.89-.84-3.31-3.02l-2.78-37.76-1.53.14-.99.84-1.8-23.16c1.68-1.41,2.48-2.74,2.38-3.98Z"/>
      <path class="cls-1" d="M2300.97,454.18l-.7-14.18,2.55-1.61c-.25-2.61-1.03-4.89-2.32-6.85-.23-.21-.46-.4-.68-.6l-.7-14.15c.8-4.47.61-11.8-.32-20.09l-.73-1.24-.47-9.55c.06-.4.08-.84.04-1.33l-7.47-77.5c3.83-25.61,25.25-125.83,63.92-299.07-.2-1.94-1.39-2.94-3.58-3l-110.97,11.3-3.03,1.98c-5.13,48.34-8.56,91.33-10.28,128.95h0s0,0,0,0c-.95,20.76-1.38,39.89-1.28,57.37l-.85.07-1.64-5.63c1.23-.9,1.74-2.41,1.54-4.55-2.22-12.24-4.4-18.26-6.53-18.07l.67-10.22c-.67-7.27-3.39-13.22-8.11-17.84-.21-3.3-1.36-6.06,2.58-6.99l-16.55-57.25c-9.67-41.35-16.33-61.74-20.02-61.37l-111.3,11.33c.41,4.9,18.95,50.45,56.04,137.62l2.02-1.71,1.98,4.7c-.7.09-1.42.15-2.13.19,38,92.22,57.35,140.16,57.58,142.71l2.6,28.98,1.02-.08.45,5.13-1.01.08.77,8.55c.09,1.02.5,1.78,1.2,2.29l.32,3.66c-.47.61-.72,1.48-.75,2.61l2.77,30.87c.06.64.42,1.27,1.08,1.86l1.43,16.31c-.4.6-.63,1.42-.66,2.47l1.55,17.24.83-.06.61,6.91-.82.06,2.02,22.49,3.25-.22-.16-1.78,6.51-.33c.23,2.26,1.41,3.32,3.55,3.17l93.3-6.44c2.2-.15,3.19-1.39,2.96-3.72l-2.05-3.49Z"/>
      <path class="cls-1" d="M519.21,683.13l-4.06-5.04s.09,0,.13-.01l.03-1.42c-6.03-9.08-10.08-13.56-12.14-13.43l-15.35-.03.84-4.72-2.22-1.27-1.12.07-.03,1.41,1.06,2.76-2.27,1.55-1.12.07-3.3-2.62c-.85.32-1.71,1.23-2.58,2.73l-36.44-.08-10.83-1.46c-.16-.35-.24-.65-.24-.9-.74.19-1.44.39-2.14.58h0s-18.56,2.64-18.56,2.64c-.52-1.25-1.35-1.85-2.51-1.78l-3.31.21c-1.08,1.1-2.81,2.15-5.21,3.14l-5.18.74c-.91-2.1-1.84-3.12-2.81-3.06l-2.2.14c-1.21.08-1.94,1.41-2.22,3.95l-8.82,1.25c-.01-.11-.03-.22-.04-.34-.51.03-.93.21-1.27.52l-15.03,2.14c-.96-.27-1.78-.15-2.46.35-2.46,1.79-3.27,8.33-3.67,17.86.58,4.85.81,9.49.68,13.91-.32,11.55-1.06,24.62-2.34,42.15l1.98,6.92.93-.29-.28,18.86c-1.55.79-2.35,1.67-2.37,2.63l-.33,11.3,2.07,4.14-.04,1.41-2.32,4.35-.59,19.85-1.6,17.1c.73-.03,1.09.43,1.06,1.38l-1.1.05c-.08,2.85.18,6.15.81,9.92l-1.78,22.87c-.3,10.25-.15,17.39.47,21.42-1.01,9.11-1.64,18.21-1.91,27.31-.83,27.77-1.33,56.87-1.5,88.15-1.05,10.45-1.77,22.11-2.15,34.99-.06,1.95.65,2.91,2.14,2.88l74.22-1.47c1.51-.03,2.29-1.02,2.34-2.99.28-12.35.78-23.05-.23-36.71.85-3.92,1.32-7.84,1.42-11.75.02-.97-.32-2.43-1.02-4.36.79-1.72,1.22-3.69,1.28-5.88.26-18.2,2.03-53.84.67-72.73.78-1.47,1.23-4.38,1.34-8.73.02-.96-.26-4.81-.84-11.53l30.44-1.13-2.52,110.94,1.07,2.91c-.76.02-1.15.52-1.17,1.5l-.84,36.86c-.04,1.97.69,2.94,2.22,2.91l74.9-1.48c1.55-.03,2.34-1.04,2.38-3.03l.55-31.25-.93.02.29-12.84c.3-1.08.6-2.24.92-3.5l1.72-97.2-1.1-2.88c.77-.03,1.16-.53,1.18-1.51l.08-4.39c-.55-.72-1.08-1.43-1.61-2.13h0,0c-18.91-24.99-28.78-37.4-29.7-37.36,12.28-15.96,23.22-30.91,32.81-44.84l.59-33.19c-.6.03-1.32.01-2.13-.04v-19.18c1.67-1.31,2.52-2.57,2.54-3.79l.63-35.81-16.62-21.83-1.65,1.12ZM462.08,796.4c-.13,2.46.45,5.75-2.38,5.84l-30.31,1.4c-1.31.06-2.03-.85-2.17-2.76l.81-32.8-1.12.06-.59.52.61-20.31c1.07-1.03,1.63-2.03,1.65-3l.15-6.12,29.89-1.27c.65,1.85,1.74,3.19,3.27,4.05l.44,24.36-.72.04c-1.69.08-2.87,3-3.57,8.74-.28,8.39-.69,21.64,4.02,21.26Z"/>
      <path class="cls-1" d="M709.33,650.6c-1.15-4.75-2.31-7.09-3.49-7.01l-48.03,2.98c-.55.03-1.13.54-1.74,1.5l-6.66.62c-.29-.91-.59-1.89-.9-2.98-4.08,1.21-6.41,1.83-6.99,1.87-1.74.11-3.29-.27-4.63-1.15l-6.99,3.3c-9.63-1.53-22.08.08-31.15.5-27.07,33.54-40.69,51.01-40.9,52.45l-4.62,281.45c25.56,33.91,39.03,51.11,40.2,51.33l66.47-1.31c2.79-.06,6.38-.63,10.79-1.73.99.99,3.78,1.44,8.38,1.35l25.28-.5c28.22-34.52,42.46-52.56,42.67-54.09l.91-224.18c0-.79-.26-1.4-.77-1.85l-.59-6.39c.93-.78,1.4-1.96,1.41-3.54l.14-33.76-1.16-7.25c.79-.04,1.2-1.53,1.21-4.45l.02-5.85-35.34-42.98c-.79.05-1.97.61-3.55,1.66ZM664.35,945.33l-29.65.87.67-59.42c-.93-.78-1.78-1.59-2.55-2.41l.7-13.1.84.77,1.18-.04,1.58-140.52,29.25-1.55-2.01,215.4Z"/>
      <path class="cls-1" d="M938.4,821.06l34.75-45.5-1.02-97.8c-27.73-32.66-42.73-49.03-45.2-49.37l-154.23,9.59c-1.4.09-2.19,1.11-2.4,3.06l-.03,13.11c0,2.19.39,4.11,1.18,5.76-.8,1.75-1.21,3.72-1.21,5.91l-.96,361.58c0,2.04,4.89,3.48,14.7,4.3,1.52-1.25,4.74-1.75,7.38-1.68,5.33-.11,10.67.3,16.02,1.22.41,0,2.05-.55,4.94-1.64,10.07,1.17,19.04,1.26,28.51.97l2.48-1.59c0,1.03.42,1.53,1.25,1.52l9.97-.2,8.73-1.72c0,1.03.84,1.53,2.5,1.5.83-.02,2.08-.55,3.75-1.62,1.46,1,3.13,1.48,5.01,1.45l7.51-1.7,2.52,1.5c4.6-1.12,8.36-1.72,11.3-1.77l34.09-.68,45.26-55.44-1.13-107.94c-12.6-16.85-24.49-31.12-35.68-42.81ZM856.76,939.66c-1.45.04-2.28-.95-2.49-2.98l-.19-68.36,33.44-1.24.35,71.66-31.11.92ZM889.45,744.38c-1.25,1.29-2.49,3.04-3.73,5.27l.14,29.95-32.02,1.48-.17-62.56,31.89-1.69.07,14.9c0,1.99.83,2.94,2.48,2.86l1.78-1.17-.45,10.96Z"/>
      <path class="cls-1" d="M1198.34,729.68l-.11-5.01c2.1-.64,3.13-2.16,3.07-4.55l-.89-35.35-1.51-7.59c.87-.05,1.27-1.6,1.2-4.67l-.15-6.12-40.26-44.88c-.87.05-2.15.64-3.85,1.75-1.41-4.96-2.76-7.41-4.05-7.33l-52.77,3.27c-.79.05-1.61.94-2.49,2.66l-6.39.4c-.44-1.15-.9-2.46-1.38-3.93-4.45,1.28-6.99,1.94-7.63,1.98-1.91.12-3.62-.27-5.12-1.18l-7.59,3.48c-10.62-1.56-24.26.16-34.25.62-28.75,35.17-43.2,53.48-43.39,54.99l3.44,294.68c29.16,35.51,44.51,53.52,45.81,53.76l73.18-1.45c3.07-.06,7.02-.67,11.83-1.82,1.12,1.04,4.21,1.51,9.28,1.41l27.85-.55c30.05-36.24,45.19-55.19,45.37-56.79l-5.94-234.99c-.04-1.6-1.14-2.52-3.28-2.77ZM1082.72,933.01l-1.08-62.27c-1.19-.93-2.25-1.88-3.21-2.86l-.21-14.16,1.86,1.58,1.29-.05-2.55-147.15,32.15-1.7,4.38,225.64-32.64.96Z"/>
      <path class="cls-1" d="M1420.99,599.22l-63.85,3.96c-.52.03-.96.21-1.32.49l-8.54.64-.93-.46-65.56,4.07-1.61,1.53-6.32.48-.05-1.51-47.53,2.95c-1.53.1-2.38,1.17-2.55,3.21l2.47,91.97c.06,2.06.96,3.04,2.73,2.95l51.86-2.69,2.13,70.11,1.44,3.07c-.9.04-1.33.59-1.3,1.62l7.19,236.89c.07,2.16,1,3.21,2.83,3.17l52.19-1.03-.11-3.27,21.67-.42,1.97,3.23c1.85-.04,2.74-1.14,2.66-3.31,0,0,0,0,0,0l8.33-.16c1.62-.03,2.89-3.32,3.82-9.85l-1.51-3.22,1.15-6.53c-.07-1.89-1.04-2.96-2.9-3.19-.11-2.98.7-6.24,2.42-9.8-1-1.87-1.54-4.02-1.62-6.45l1.09-8.14c-1.16.03-2.16-2.1-3.01-6.41l2.6-4.92c-.07-1.88-1.03-2.94-2.89-3.16-.41.01-.78.09-1.09.24l-.11-3.47c.91-.12,2.17-.68,3.8-1.7-.03-.74-1.36-2.04-3.97-3.87l-.08-2.7c2.48-1.61,3.7-3.19,3.65-4.74l-2.33-64.27c-.2-5.6-.84-10.38-1.9-14.34.71-5.62.98-10.95.8-16.01l-5.16-142.14,53.41-2.77c1.83-.1,2.71-1.19,2.63-3.29l-3.75-93.8c-.07-1.81-1.03-2.79-2.86-2.94ZM1377.04,929.18l-.96.6-.11-3.45c.41.88.77,1.83,1.07,2.85Z"/>
      <path class="cls-1" d="M1565.11,995.65l-1-22.47c.1.01.2.02.32.02l1.28-3.34-.63-13.19c-.5.01-1.08,0-1.7-.03l-.58-12.93c.07-.06.14-.11.21-.17l-.23-.33-.36-8.07c1.26-1.77,1.55-4.63,1.24-8.07-.51.01-1.05.01-1.6,0l-.3-6.74c2.05-.88,1.31-3.86,1.27-6.38,0,0,0,0,0,0l-1.68-16.34.9-.03-.08-1.63-1.25-2.53-1.07-10.43c.53-.62,1.06-1.2,1.62-1.74l-2.09-2.9-.53-5.18,2.23-.08-1.72-35.78-1.43.05c-.15.06-.32.15-.48.25l-.11-11.35c.48-.1.96-.19,1.47-.3l-.7-14.57-.93-1.87-.24-25.35-7.91-23.62,1.21-8.71c.23.06.48.11.75.13,1.65-.08,2.55-1.19,2.68-3.34-.09-1.97-.96-2.98-2.56-3.06l1.79-12.96-.54-11.2c-.38-.71-.76-1.38-1.14-2.05l-3.35-26.5.29-.02,2.75-1.74c-1.12-2.22-2.2-3.62-3.24-4.21l1.06-11.62c1.64-.09,2.53-1.19,2.67-3.33-.14-2.91-1.23-6.03-3.28-9.37l-1.46.41-.3-9.91,2.63-1.67-1.56-3.09-1.19.76-.15-4.93c1.63-1.32,2.43-2.6,2.37-3.82-.75-1.36-1.62-2.49-2.59-3.46l-.56-18.53,2.08-.12-.15-3.15c-.73-1.43-1.43-2.51-2.13-3.25l-.31-10.41c2.06-1.31,3.07-2.56,3.01-3.75-.22-2.89.38-6.33-3.11-6.12l-53.49,3.32-25.77,1.6h0s-11.02.68-11.02.68c-1.84.11-2.71,1.21-2.62,3.29l.65,15.6c.97-.06,2.2.66,3.68,2.11l.82,20.97-.76.22c-.04-1.04-.53-1.54-1.45-1.49l-1.25,3.21.52,12.54c.93-.05,2.11-.03,3.5.07l.42,10.75c-.63.53-1.3,1.09-2.02,1.67l2.2,3.02.14,3.54c-2.86,1.22-3.4,4.93-3.07,9.25.63-.03,1.3-.04,2-.04l.15,6.35c-1.24.37-1.83,1.41-1.76,3.14l.13,3.15c.06,1.45.68,2.37,1.84,2.78l.31,12.93-1.49.08.07,1.58,1.52,3.09s.01,0,.02,0l.24,9.87c-.39.44-.78.88-1.18,1.28l1.26,1.74.15,6.13-1.07.05,1.46,34.96.45-.02.27,11.12c-.09.02-.17.03-.25.05l.6,14.37,1.93,21.91c-1.23,1.57-1.35,2.65.33,3.75l2.99,33.99c-.73.52-1.14,1.47-1.23,2.87.07,1.64.65,2.62,1.75,2.98l.85,9.66c-.74.96-1.39,2.1-1.92,3.49l.47,11.31c.48.94.96,1.83,1.44,2.71l2.59,26.36-2.75,1.71c1.27,2.64,2.5,4.16,3.67,4.6l.12,4.71-.57.35.61,1.26.13,5.23-1.87.05c-1.65.05-2.54,1.16-2.68,3.33.12,2.99,1.2,6.22,3.23,9.69l1.63-.43.25,10.31-.07-.14-2.75,1.7,1.55,3.23,1.37-.85.12,5.06c-1.75,1.35-2.62,2.68-2.56,3.99.79,1.52,1.72,2.81,2.76,3.89l.47,18.96-2.26.05.14,3.28c.78,1.64,1.55,2.86,2.3,3.66l.26,10.54c-2.2,1.31-3.27,2.61-3.22,3.87.22,2.99-.44,6.59,3.11,6.52,0,0,81.42-1.61,81.42-1.61l11.53-.23c1.92-.04,2.83-1.16,2.73-3.38l-.8-16.58c-.54.01-1.16-.21-1.86-.66ZM1539.34,606.46l.26-3.34c.25-.56.47-1.09.66-1.61.5.27,1.02.55,1.54.85l-2.46,4.1Z"/>
      <path class="cls-1" d="M1817.7,855.99c-.79-12.23-2.83-20.5-6.11-24.83l-.11-1.66c3-.11,4.43-1.27,4.28-3.49l-.11-1.66c-.14-2.21-2.22-3.25-6.21-3.09l-.32-4.98c-.14-2.21,1.28-3.38,4.28-3.49l-.21-3.32c-11.72.46-29.95,3.94-54.62,10.42-30.42,3.38-45.44,7.25-45.19,11.64l4.9,84.44-36.85,1.08-8.5-152.77-1.63-3.19c.97-.04,1.42-.6,1.36-1.69-.75-16.24-2.15-41.17-5.87-53.32l2.8-1.76c-.13-2.34-.98-4.64-2.53-6.9l.4-12.49c.59-2.06.79-4.72.61-8l36.23-1.92,1.12,19.39c.2,3.29,2.27,3.22,4.56,3.02l1.8-1.13-.13,2.82c-.04-.05-.08-.1-.12-.15-3.73,2.9-5.55,5.15-5.46,6.77l2.26,38.99,1.65,3.19c40.35-6.15,64-10.99,70.78-14.49l7.6-1.14c.15.26.31.43.48.51,12.87-.6,19.22-2.55,19.01-5.83l-.21-3.28-1.26-9.81.62-.03.75-11.54-1.27-19.61c-.16-2.45-.8-4.6-1.91-6.45.86-1.95,1.22-4.15,1.06-6.6l-2.1-32.52c-.35-5.4-7.31-13.68-20.84-24.79-.76.04-1.79.43-3.08,1.14l-7.5-7.88c-3.37-6.95-11.81-15.82-25.32-26.61l-131.03,8.13c-31.05,37.34-46.63,56.78-46.78,58.38l15.39,312.31c34.33,37.64,52.38,56.75,53.85,56.99l70.78-1.4,7.33-1.83c.06,1.13,1.58,1.66,4.56,1.6l53.86-1.07c32.56-38.55,48.93-58.71,49.08-60.4-1.53-18.63-3.28-67.35-7.04-85.64.89-1.7,1.18-5.06.86-10.07Z"/>
      <path class="cls-1" d="M1541.39,306.96c-2.14,15.07-8.93,82.47-20.46,203.23.11,2.21,1.14,3.23,3.1,3.1l57.47-3.97c-.3-5.52.54-8.36,2.52-8.5l2.96-.21c.54,5.52,2.17,8.17,4.89,7.99l35.68-2.47c1.49-.1,2.83-2.98,4-8.63-.14-42.19,1.15-63.31,3.87-63.52l47.75-3.56c2.84,17.1,5.3,31.09,7.38,42.01h0s0,0,0,0c3.67,19.27,6.15,28.91,7.44,28.82l10.56-.73,9.17,1.05c1.69-1.23,4.18-1.97,7.46-2.2l9.08-.63,7.69,1.15c-.09-3.15,3.71-1.45,6.07-.42l9.01-2.31c2.28-.16,4.34.27,6.19,1.26,1.7-1.24,3.7-1.94,5.98-2.1l35.13-2.43,2.95-1.9c-38.51-182.04-59.67-275.62-64.23-284.19l1.29-3.38c-.21-3.25-1.48-7.47-3.82-12.7l-.95.62-.73-3.73,1.47-.14-.21-3.24-1.7-3.1c-.26.02-.53.08-.8.12l-10.78-55.36c-1.16-6.13-2.26-11.77-3.3-16.93l-.02-.09h0c-5.62-27.91-9.52-41.71-11.71-41.49l-122.72,12.51c.17,3.16-.71,4.84-2.63,5.04-1.93.2-2.98-1.29-3.15-4.45l-4.34.44c-.73.07-2.01,1.57-3.82,4.46h0s-13.66,17.94-13.66,17.94l-1.64,19.26-1.86.18.34,6.34.98-.1-.27,3.21-1.98.19c-4.3,46.74-6.28,73.66-5.92,80.58l.93,1.33-.31,3.63-.37-.16-2.9.27.67,12.81,1.29,2.45-.07.83c-2.79,2.28-5.81,25.6-9.07,70.15l2.91-.25c-.04-.84.1-1.71.44-2.58l-.49,5.72-2.78-1.27ZM1642.03,162.1l1.47-.14c5.11,41.24,15.35,97.73,30.8,169.85l-42.99,3.53c8.51-92.69,12.07-150.25,10.73-173.24ZM1549.96,240.07l-.17,1.95-.13-.47-.08-1.6.38.12Z"/>
      <path class="cls-1" d="M2105.46,930.43l-12.18-147.34c-1.24-2.22-52.26-29.48-151.17-80.8-2.36-4.54-5.68-8.38-9.92-11.52l-.65-23.33c3.17-1.85,4.64-4.51,4.38-7.98l39.69-2.11.88,11.59c.13,1.65.77,2.66,1.95,3.01l2.27,11.76h-.02c-1.79.09-2.74,1.25-2.82,3.48l1.38,18.29,1.79,3.26c47.94-8.47,71.91-14.68,71.6-18.6l-1.05-3.88,17.7-3.26.51,6.29c6.85-.15,15.04-1.08,15.24-5.81l-5.8-70.14-57.06-51.41-8.31.52-.48-.52-24.92,2.25c0-.06-.01-.11-.02-.16l-10.68.66.04.46-26.42,2.39c-.55-.62-1.38-.98-2.51-1.06l-12.12.75.12,1.62-6.06.55c0-.06.01-.11,0-.17l-.12-1.63-6.04.37.14,1.96-16.47,1.49c-.11-.82-.2-1.63-.25-2.43l-4.51.28c-.91,1.03-1.77,1.96-2.57,2.81l-17.11,1.55c-.98-.86-1.92-1.85-2.82-2.96-1.14.07-2.99,1.32-5.54,3.72h0s0,.01,0,.01c-8.1,7.62-23.32,26.95-45.67,57.99l2.27,34.22c.52,7.9,2.3,12.18,5.35,12.84h.24s1.19,14.72,1.19,14.72l-1.95.1c-1.75.09-2.67,1.23-2.77,3.43l1.74,26.28,1.5-.07,3.61-3.33.53,6.52c-3.59.45-5.33,1.61-5.2,3.47l2.41,36.31c5.64,5.57,46.07,28.33,122.39,68.87l3.09-.11-.32-.6.87.58-.55.02c.08,1.13,8.79,7.03,26.18,17.75l4.12,54.49-38.86,1.14-2.11-28.89-3.03-20.28c1.03-.03,1.46-1.18,1.3-3.44l-2.04-6.71,1.3-3.43-3.58-6.64c-68.73,11.72-102.64,19.61-102.36,23.8l4.46,67.29c5.86,15.66,9.95,23.48,12.23,23.42l-1.3,3.43c2.84,4.47,5.03,6.68,6.56,6.64l1.53-.04c.71-.43,1.32-.85,1.85-1.27l9.27,10.28c-.83.75-1.72,1.64-2.67,2.72,20.75,22.35,31.81,33.56,33.1,33.53l145.59-2.88c12.73-13.32,18.88-22.74,18.44-28.24l3.32,1.67c7.95-6.85,11.73-12.74,11.33-17.66,4.25-.1,10.15-6.04,17.72-17.83l-1.16-14.07h0ZM1835.71,630.43l-.22-3.25c.92-.05,1.45.4,1.57,1.35l-1.35,1.91Z"/>
    </g>
  </g>
</svg>